# xmcd
# 
# Track frame offsets:
#     150
#     26100
#     49893
#     71501
#     88007
#     106730
#     125338
#     147208
#     171879
#     195662
#     211920
#     229328
#     246638
#     258056
#     280469
#     293025
# 
# Disc length: 4226
# 
# Revision: 0
# Processed by: cddbd v1.5.2PL0 Copyright (c) Steve Scherf et al.
# Submitted via: BonkEnc v1.0.8
# 
DISCID=f1108010
DTITLE=La Ley - MTV Unplugged
DYEAR=2001
DGENRE=
TTITLE0=01 Pista 1
TTITLE1=02 Pista 2
TTITLE2=03 Pista 3
TTITLE3=04 Pista 4
TTITLE4=05 Pista 5
TTITLE5=06 Pista 6
TTITLE6=07 Pista 7
TTITLE7=08 Pista 8
TTITLE8=09 Pista 9
TTITLE9=10 Pista 10
TTITLE10=11 Pista 11
TTITLE11=12 Pista 12
TTITLE12=13 Pista 13
TTITLE13=14 Pista 14
TTITLE14=15 Pista 15
TTITLE15=16 Pista 16
EXTD=Micho Music Factory Corps.\nmicho38@latinmail.com YEAR: 2001
EXTT0=
EXTT1=
EXTT2=
EXTT3=
EXTT4=
EXTT5=
EXTT6=
EXTT7=
EXTT8=
EXTT9=
EXTT10=
EXTT11=
EXTT12=
EXTT13=
EXTT14=
EXTT15=
PLAYORDER=
